<?xml version="1.0" encoding="UTF-8" ?>
<!DOCTYPE svg PUBLIC "-//W3C//DTD SVG 1.1//EN" "http://www.w3.org/Graphics/SVG/1.1/DTD/svg11.dtd">
<svg width="791pt" height="315pt" viewBox="0 0 791 315" version="1.1" xmlns="http://www.w3.org/2000/svg">
<g id="#f6b223ff">
<path fill="#f6b223" opacity="1.00" d=" M 79.81 63.19 C 100.99 49.58 127.25 43.84 152.11 48.28 C 165.51 50.50 178.34 55.88 189.36 63.83 C 205.57 76.12 217.09 94.06 222.89 113.46 C 208.16 114.74 193.36 115.30 178.66 117.02 C 173.02 109.92 167.89 101.95 159.97 97.16 C 150.16 91.16 138.01 89.39 126.81 91.75 C 118.35 93.04 110.40 96.47 102.89 100.45 C 95.00 88.15 87.69 75.49 79.81 63.19 Z" />
</g>
<g id="#60b850ff">
<path fill="#60b850" opacity="1.00" d=" M 34.43 138.84 C 37.03 111.23 52.03 85.70 73.00 67.92 C 80.71 80.40 88.27 93.01 96.30 105.27 C 90.53 113.11 84.06 120.76 80.86 130.11 C 72.41 156.38 82.04 186.55 102.30 204.78 C 111.42 213.28 122.90 218.94 134.89 222.12 C 161.61 228.45 190.58 220.73 211.99 203.93 C 226.04 192.90 236.29 177.53 242.90 161.05 C 249.33 160.96 255.76 161.00 262.20 160.96 C 262.21 155.89 262.20 150.83 262.22 145.77 C 257.16 145.77 252.09 145.79 247.03 145.76 C 246.95 140.91 246.97 136.07 247.06 131.22 C 252.20 131.30 257.34 131.10 262.48 131.34 C 262.35 136.10 262.45 140.85 262.40 145.61 C 267.12 145.54 271.84 145.56 276.57 145.55 C 276.58 140.78 276.56 136.01 276.56 131.24 C 281.80 131.09 287.04 131.27 292.27 131.20 C 291.66 148.68 288.04 166.04 281.30 182.19 C 265.36 222.32 229.10 253.64 187.14 263.72 C 161.32 270.41 133.34 269.26 108.41 259.60 C 73.84 245.80 46.94 214.82 37.48 178.90 C 34.61 165.81 32.93 152.22 34.43 138.84 Z" />
<path fill="#60b850" opacity="1.00" d=" M 273.25 75.22 C 277.48 75.20 281.71 75.23 285.95 75.20 C 286.03 79.45 286.04 83.69 285.96 87.94 C 281.69 88.00 277.42 88.03 273.16 87.93 C 273.16 83.70 273.19 79.46 273.25 75.22 Z" />
<path fill="#60b850" opacity="1.00" d=" M 262.27 96.37 C 266.15 96.36 270.04 96.38 273.92 96.33 C 274.01 100.43 274.09 104.53 273.99 108.63 C 270.06 108.54 266.14 108.57 262.22 108.58 C 262.16 104.51 262.19 100.44 262.27 96.37 Z" />
<path fill="#60b850" opacity="1.00" d=" M 276.55 111.02 C 281.68 110.98 286.80 111.02 291.93 111.05 C 291.98 116.02 291.99 120.99 291.94 125.96 C 286.81 126.00 281.68 126.01 276.55 126.00 C 276.57 121.01 276.58 116.01 276.55 111.02 Z" />
<path fill="#60b850" opacity="1.00" d=" M 181.04 125.13 C 195.65 123.28 210.38 122.70 225.01 121.15 C 227.43 137.52 225.02 154.62 217.49 169.41 C 208.41 187.52 192.60 202.40 173.38 209.14 C 170.66 194.98 165.84 181.24 164.27 166.85 C 169.25 160.58 176.53 155.96 179.44 148.21 C 182.22 140.86 181.32 132.81 181.04 125.13 Z" />
<path fill="#60b850" opacity="1.00" d=" M 478.16 131.45 C 482.59 131.69 487.03 131.86 491.45 132.30 C 495.41 143.39 499.55 154.43 503.94 165.36 C 508.81 154.43 512.22 142.88 517.33 132.03 C 521.94 131.93 526.56 131.96 531.18 132.11 C 528.90 133.95 526.35 135.39 523.95 137.05 C 524.12 149.58 524.00 162.11 524.01 174.65 C 526.51 176.20 528.91 177.92 531.29 179.66 C 524.57 179.50 517.85 179.62 511.13 179.63 C 513.04 177.89 514.93 176.11 517.08 174.65 C 517.22 164.67 517.29 154.68 517.06 144.70 C 515.37 146.55 514.94 149.06 514.12 151.34 C 510.87 159.61 508.34 168.22 503.86 175.95 C 503.13 175.95 501.66 175.95 500.92 175.95 C 496.56 166.65 493.39 156.87 489.81 147.27 C 489.15 145.78 489.06 143.88 487.68 142.84 C 487.68 153.26 487.75 163.69 487.54 174.11 C 489.68 175.87 491.79 177.66 493.87 179.50 C 488.60 179.65 483.34 180.03 478.08 180.00 C 483.55 173.29 482.79 164.04 482.91 155.92 C 482.88 147.64 483.42 138.44 478.16 131.45 Z" />
<path fill="#60b850" opacity="1.00" d=" M 532.93 179.98 C 541.85 164.87 546.20 147.68 553.92 132.01 C 555.18 132.03 556.45 132.07 557.73 132.10 C 565.99 147.61 568.63 165.86 579.56 179.95 C 573.69 179.87 567.82 179.80 561.96 179.40 C 563.82 177.79 565.61 176.08 567.33 174.30 C 565.74 171.51 564.50 168.54 562.79 165.82 C 556.80 166.10 550.43 165.04 544.87 167.83 C 542.41 168.96 541.25 171.53 539.87 173.67 C 542.53 175.51 545.11 177.46 547.62 179.50 C 542.72 179.54 537.82 179.76 532.93 179.98 M 545.96 162.45 C 551.32 162.36 556.67 162.36 562.03 162.35 C 559.01 155.91 557.31 148.90 554.02 142.61 C 551.36 149.23 548.91 155.94 545.96 162.45 Z" />
<path fill="#60b850" opacity="1.00" d=" M 587.05 136.95 C 592.57 131.30 602.39 129.30 609.05 134.12 C 610.74 135.31 612.32 137.03 612.51 139.19 C 607.42 137.35 601.91 135.25 596.45 136.59 C 593.74 137.22 592.58 140.02 591.17 142.10 C 594.58 150.90 604.84 152.81 610.84 159.14 C 616.40 165.61 612.14 176.76 604.14 178.79 C 597.66 180.13 591.05 179.01 584.53 178.78 C 584.36 175.38 584.17 171.98 584.14 168.58 C 588.85 171.80 593.78 176.12 599.92 175.39 C 602.21 175.45 604.13 174.16 605.89 172.84 C 605.39 169.62 605.27 166.36 604.87 163.14 C 598.69 158.31 590.39 155.89 585.89 149.04 C 582.87 145.51 583.96 140.07 587.05 136.95 Z" />
<path fill="#60b850" opacity="1.00" d=" M 618.27 132.05 C 632.19 131.97 646.12 131.97 660.05 132.03 C 660.03 135.49 660.02 138.94 660.01 142.40 C 658.38 142.40 656.76 142.40 655.14 142.40 C 655.04 140.12 654.94 137.84 654.83 135.57 C 650.89 135.56 646.95 135.59 643.01 135.62 C 643.09 148.71 643.02 161.80 642.96 174.89 C 645.27 176.40 647.53 177.97 649.86 179.46 C 642.58 179.51 635.32 179.99 628.05 179.87 C 630.31 177.87 632.80 176.10 634.78 173.80 C 636.21 161.13 634.95 148.34 635.23 135.62 C 631.12 135.57 627.01 135.57 622.91 135.57 C 622.73 137.84 622.57 140.12 622.42 142.39 C 621.04 142.40 619.67 142.40 618.31 142.41 C 618.25 138.95 618.26 135.50 618.27 132.05 Z" />
<path fill="#60b850" opacity="1.00" d=" M 665.04 131.51 C 675.31 132.08 685.61 132.03 695.89 132.00 C 696.05 134.29 696.24 136.59 696.44 138.89 C 690.18 136.64 683.56 135.81 677.04 134.74 C 677.04 140.94 677.05 147.14 677.13 153.34 C 681.97 151.87 686.77 150.28 691.68 149.06 C 691.70 152.38 691.73 155.71 691.69 159.04 C 686.77 157.93 681.96 156.35 677.07 155.12 C 677.07 162.23 676.99 169.33 677.01 176.44 C 683.98 176.12 691.14 175.61 697.51 172.49 C 697.56 174.86 697.58 177.23 697.58 179.60 C 686.69 179.42 675.80 179.63 664.92 180.05 C 669.93 173.48 669.24 164.79 669.29 157.00 C 669.13 148.41 670.27 138.96 665.04 131.51 Z" />
<path fill="#60b850" opacity="1.00" d=" M 701.43 132.12 C 711.53 132.40 722.42 129.94 731.81 134.84 C 734.90 137.15 736.55 141.29 735.97 145.13 C 735.01 150.67 731.79 155.77 727.17 159.00 C 731.75 166.79 737.34 174.11 744.22 180.01 C 739.92 179.64 735.41 180.09 731.25 179.06 C 727.01 171.88 722.90 164.38 716.69 158.69 L 715.33 158.12 C 718.11 154.55 722.97 153.96 727.04 152.70 C 727.39 147.80 727.45 142.89 727.59 137.99 C 723.45 136.72 719.15 136.06 715.02 134.76 C 715.00 143.46 715.05 152.16 715.16 160.86 C 714.57 167.50 714.85 175.50 720.64 179.93 C 714.46 179.90 708.29 179.82 702.12 179.92 C 706.96 174.17 708.32 166.23 707.96 158.91 C 707.43 151.76 706.45 144.55 707.43 137.40 C 705.40 135.66 703.33 133.98 701.43 132.12 Z" />
</g>
<g id="#ce2022ff">
<path fill="#ce2022" opacity="1.00" d=" M 111.05 106.05 C 114.56 106.06 118.07 106.05 121.59 106.07 C 121.54 109.36 121.53 112.65 121.58 115.95 C 118.06 116.02 114.55 116.01 111.03 115.96 C 111.07 112.66 111.07 109.35 111.05 106.05 Z" />
<path fill="#ce2022" opacity="1.00" d=" M 102.03 120.23 C 105.01 120.26 107.98 120.27 110.95 120.28 C 110.99 123.71 110.99 127.14 110.92 130.58 C 107.94 130.57 104.97 130.58 101.99 130.47 C 102.10 127.06 102.06 123.64 102.03 120.23 Z" />
<path fill="#ce2022" opacity="1.00" d=" M 114.46 128.62 C 119.63 128.60 124.80 128.61 129.97 128.60 C 130.00 133.72 129.94 138.84 129.99 143.96 C 124.82 143.96 119.64 144.00 114.47 143.99 C 114.43 138.86 114.42 133.74 114.46 128.62 Z" />
<path fill="#ce2022" opacity="1.00" d=" M 321.98 131.62 C 331.83 132.29 341.96 130.89 351.58 133.66 C 358.47 135.59 363.22 142.04 364.64 148.83 C 366.43 154.82 365.26 161.19 363.08 166.90 C 360.26 172.82 354.90 178.38 348.05 178.91 C 339.33 180.03 330.52 179.60 321.76 180.05 C 324.99 176.49 326.83 171.87 326.73 167.05 C 326.73 158.58 327.06 150.09 326.51 141.63 C 326.43 137.78 324.05 134.65 321.98 131.62 M 333.55 134.74 C 333.43 148.70 333.47 162.67 333.55 176.64 C 339.56 175.39 346.32 176.14 351.58 172.43 C 354.87 169.49 357.36 165.45 357.93 161.02 C 359.08 153.93 358.26 145.83 353.35 140.23 C 348.00 135.28 340.24 136.02 333.55 134.74 Z" />
<path fill="#ce2022" opacity="1.00" d=" M 371.88 132.07 C 382.87 132.02 393.87 132.05 404.87 132.01 C 405.02 134.45 405.19 136.89 405.36 139.33 C 399.36 135.67 392.12 135.44 385.32 135.03 C 385.34 141.08 385.38 147.14 385.37 153.19 C 390.38 152.43 395.14 150.55 400.16 149.81 C 400.29 152.72 400.39 155.63 400.45 158.54 C 395.49 157.15 390.41 156.25 385.38 155.18 C 385.37 162.28 385.32 169.37 385.35 176.47 C 392.98 175.62 400.68 175.46 408.26 174.17 C 407.00 175.63 405.81 177.14 404.73 178.74 C 393.84 180.48 382.79 179.32 371.83 179.57 C 374.18 178.01 376.44 176.31 378.72 174.64 C 378.34 162.09 378.34 149.52 378.73 136.97 C 376.46 135.32 374.15 133.72 371.88 132.07 Z" />
<path fill="#ce2022" opacity="1.00" d=" M 409.41 131.76 C 414.89 131.81 420.38 131.96 425.86 132.12 C 424.05 133.94 422.08 135.59 419.99 137.08 C 424.48 147.60 428.40 158.37 432.50 169.05 C 436.78 158.59 440.89 148.04 444.24 137.25 C 442.40 135.58 440.78 133.68 439.25 131.73 C 443.51 131.71 447.77 131.72 452.04 131.72 C 447.75 139.36 444.10 147.35 441.31 155.65 C 438.06 164.05 435.73 172.82 431.61 180.86 C 431.38 180.85 430.92 180.82 430.69 180.80 C 422.57 164.91 418.87 147.04 409.41 131.76 Z" />
<path fill="#ce2022" opacity="1.00" d=" M 83.98 149.04 C 89.13 149.05 94.27 148.96 99.42 149.10 C 99.36 153.89 99.41 158.68 99.37 163.46 C 104.39 163.43 109.40 163.47 114.42 163.44 C 114.42 158.65 114.44 153.86 114.43 149.07 C 118.66 149.02 122.90 149.01 127.14 149.05 C 129.56 155.39 131.40 162.71 137.41 166.70 C 142.93 169.86 149.54 169.09 155.64 169.34 C 157.71 177.24 159.32 185.25 161.30 193.17 C 162.26 199.41 164.73 205.34 165.12 211.68 C 150.11 213.49 133.94 214.08 120.19 206.75 C 107.79 201.05 98.77 190.17 91.47 178.96 C 94.07 178.75 96.67 178.59 99.28 178.43 C 99.27 173.49 99.28 168.54 99.29 163.60 C 94.22 163.60 89.15 163.50 84.09 163.62 C 83.91 158.76 84.01 153.90 83.98 149.04 Z" />
</g>
</svg>
